HIERARCHY
ROOT Hip
{
	OFFSET 7.75958 15.5947 193.3
	CHANNELS 6 Xposition Yposition Zposition Zrotation Xrotation Yrotation
	JOINT Spine
	{
		OFFSET -0.540533 6.96053 6.65622
		CHANNELS 3 Zrotation Xrotation Yrotation
		JOINT ShoulderCenter
		{
			OFFSET 10.4621 40.3054 4.93486
			CHANNELS 3 Zrotation Xrotation Yrotation
			JOINT Head
			{
				OFFSET 12.989 13.1838 3.3022
				CHANNELS 3 Zrotation Xrotation Yrotation
				End Site
				{
					OFFSET 0.0 0.0 0.0
				}
			}
			JOINT ShoulderLeft
			{
				OFFSET 11.2835 -21.5914 0.436264
				CHANNELS 3 Zrotation Xrotation Yrotation
				JOINT ElbowLeft
				{
					OFFSET 6.58009 -17.3661 4.79951
					CHANNELS 3 Zrotation Xrotation Yrotation
					JOINT WristLeft
					{
						OFFSET 6.07736 -17.6623 -8.15933
						CHANNELS 3 Zrotation Xrotation Yrotation
						JOINT HandLeft
						{
							OFFSET 2.18937 -6.1411 -1.72466
							CHANNELS 3 Zrotation Xrotation Yrotation
							End Site
							{
								OFFSET 0.0 0.0 0.0
							}
						}
					}
				}
			}
			JOINT ShoulderRight
			{
				OFFSET -17.9379 -10.1169 -10.1198
				CHANNELS 3 Zrotation Xrotation Yrotation
				JOINT ElbowRight
				{
					OFFSET -19.6665 -17.5394 -9.59221
					CHANNELS 3 Zrotation Xrotation Yrotation
					JOINT WristRight
					{
						OFFSET -8.53332 -18.6838 -11.4866
						CHANNELS 3 Zrotation Xrotation Yrotation
						JOINT HandRight
						{
							OFFSET -4.21762 -4.28933 -2.59003
							CHANNELS 3 Zrotation Xrotation Yrotation
							End Site
							{
								OFFSET 0.0 0.0 0.0
							}
						}
					}
				}
			}
		}
	}
	JOINT HipLeft
	{
		OFFSET 5.16186 -9.029 1.08562
		CHANNELS 3 Zrotation Xrotation Yrotation
		JOINT KneeLeft
		{
			OFFSET 2.3794 -45.2482 -0.437302
			CHANNELS 3 Zrotation Xrotation Yrotation
			JOINT AnkleLeft
			{
				OFFSET 2.02199 -35.522 1.44424
				CHANNELS 3 Zrotation Xrotation Yrotation
				JOINT FootLeft
				{
					OFFSET 6.70367 -4.92928 -1.76866
					CHANNELS 3 Zrotation Xrotation Yrotation
					End Site
					{
						OFFSET 0.0 0.0 0.0
					}
				}
			}
		}
	}
	JOINT HipRight
	{
		OFFSET -8.15347 -5.58378 -5.1102
		CHANNELS 3 Zrotation Xrotation Yrotation
		JOINT KneeRight
		{
			OFFSET -7.5843 -48.739 1.06766
			CHANNELS 3 Zrotation Xrotation Yrotation
			JOINT AnkleRight
			{
				OFFSET -2.9033 -31.6223 -1.34735
				CHANNELS 3 Zrotation Xrotation Yrotation
				JOINT FootRight
				{
					OFFSET 3.74107 -3.54575 -8.62486
					CHANNELS 3 Zrotation Xrotation Yrotation
					End Site
					{
						OFFSET 0.0 0.0 0.0
					}
				}
			}
		}
	}
}

MOTION
Frames: 17
Frame Time: 0.033333
7.9687 15.6288 193.685 13.7084 -7.76167 150.631 22.3941 -39.467 141.637 15.7616 -1.8082 159.387 42.8774 6.07532 161.618 154.282 -8.56423 162.63 158.816 15.1833 179.774 157.679 -23.3238 -165.197 158.596 -7.26253 -171.999 -117.118 -5.55595 152.138 -139.033 34.4099 120.813 -145.765 15.9614 105.276 -137.995 31.9149 119.349 150.777 -7.76167 150.631 178.119 -2.51333 151.91 176.039 0.445951 151.813 141.023 -42.2906 155.454 -120.14 -7.76167 150.631 -172.481 5.18229 153.773 -173.891 -0.0202307 153.087 -162.357 -68.406 137.402 
7.9687 15.6288 193.685 13.7084 -7.76167 150.631 22.3941 -39.467 141.637 15.7616 -1.8082 159.387 42.8774 6.07532 161.618 154.282 -8.56423 162.63 158.816 15.1833 179.774 157.679 -23.3238 -165.197 158.596 -7.26253 -171.999 -117.118 -5.55595 152.138 -139.033 34.4099 120.813 -145.765 15.9614 105.276 -137.995 31.9149 119.349 150.777 -7.76167 150.631 178.119 -2.51333 151.91 176.039 0.445951 151.813 141.023 -42.2906 155.454 -120.14 -7.76167 150.631 -172.481 5.18229 153.773 -173.891 -0.0202307 153.087 -162.357 -68.406 137.402 
7.9687 15.6288 193.685 13.7084 -7.76167 150.631 22.3941 -39.467 141.637 15.7616 -1.8082 159.387 42.8774 6.07532 161.618 154.282 -8.56423 162.63 158.816 15.1833 179.774 157.679 -23.3238 -165.197 158.596 -7.26253 -171.999 -117.118 -5.55595 152.138 -139.033 34.4099 120.813 -145.765 15.9614 105.276 -137.995 31.9149 119.349 150.777 -7.76167 150.631 178.119 -2.51333 151.91 176.039 0.445951 151.813 141.023 -42.2906 155.454 -120.14 -7.76167 150.631 -172.481 5.18229 153.773 -173.891 -0.0202307 153.087 -162.357 -68.406 137.402 
7.9687 15.6288 193.685 13.7084 -7.76167 150.631 22.3941 -39.467 141.637 15.7616 -1.8082 159.387 42.8774 6.07532 161.618 154.282 -8.56423 162.63 158.816 15.1833 179.774 157.679 -23.3238 -165.197 158.596 -7.26253 -171.999 -117.118 -5.55595 152.138 -139.033 34.4099 120.813 -145.765 15.9614 105.276 -137.995 31.9149 119.349 150.777 -7.76167 150.631 178.119 -2.51333 151.91 176.039 0.445951 151.813 141.023 -42.2906 155.454 -120.14 -7.76167 150.631 -172.481 5.18229 153.773 -173.891 -0.0202307 153.087 -162.357 -68.406 137.402 
7.9687 15.6288 193.685 13.7084 -7.76167 150.631 22.3941 -39.467 141.637 15.7616 -1.8082 159.387 42.8774 6.07532 161.618 154.282 -8.56423 162.63 158.816 15.1833 179.774 157.679 -23.3238 -165.197 158.596 -7.26253 -171.999 -117.118 -5.55595 152.138 -139.033 34.4099 120.813 -145.765 15.9614 105.276 -137.995 31.9149 119.349 150.777 -7.76167 150.631 178.119 -2.51333 151.91 176.039 0.445951 151.813 141.023 -42.2906 155.454 -120.14 -7.76167 150.631 -172.481 5.18229 153.773 -173.891 -0.0202307 153.087 -162.357 -68.406 137.402 
7.9687 15.6288 193.685 13.7084 -7.76167 150.631 22.3941 -39.467 141.637 15.7616 -1.8082 159.387 42.8774 6.07532 161.618 154.282 -8.56423 162.63 158.816 15.1833 179.774 157.679 -23.3238 -165.197 158.596 -7.26253 -171.999 -117.118 -5.55595 152.138 -139.033 34.4099 120.813 -145.765 15.9614 105.276 -137.995 31.9149 119.349 150.777 -7.76167 150.631 178.119 -2.51333 151.91 176.039 0.445951 151.813 141.023 -42.2906 155.454 -120.14 -7.76167 150.631 -172.481 5.18229 153.773 -173.891 -0.0202307 153.087 -162.357 -68.406 137.402 
7.9687 15.6288 193.685 13.7084 -7.76167 150.631 22.3941 -39.467 141.637 15.7616 -1.8082 159.387 42.8774 6.07532 161.618 154.282 -8.56423 162.63 158.816 15.1833 179.774 157.679 -23.3238 -165.197 158.596 -7.26253 -171.999 -117.118 -5.55595 152.138 -139.033 34.4099 120.813 -145.765 15.9614 105.276 -137.995 31.9149 119.349 150.777 -7.76167 150.631 178.119 -2.51333 151.91 176.039 0.445951 151.813 141.023 -42.2906 155.454 -120.14 -7.76167 150.631 -172.481 5.18229 153.773 -173.891 -0.0202307 153.087 -162.357 -68.406 137.402 
7.9687 15.6288 193.685 13.7084 -7.76167 150.631 22.3941 -39.467 141.637 15.7616 -1.8082 159.387 42.8774 6.07532 161.618 154.282 -8.56423 162.63 158.816 15.1833 179.774 157.679 -23.3238 -165.197 158.596 -7.26253 -171.999 -117.118 -5.55595 152.138 -139.033 34.4099 120.813 -145.765 15.9614 105.276 -137.995 31.9149 119.349 150.777 -7.76167 150.631 178.119 -2.51333 151.91 176.039 0.445951 151.813 141.023 -42.2906 155.454 -120.14 -7.76167 150.631 -172.481 5.18229 153.773 -173.891 -0.0202307 153.087 -162.357 -68.406 137.402 
7.9687 15.6288 193.685 13.7084 -7.76167 150.631 22.3941 -39.467 141.637 15.7616 -1.8082 159.387 42.8774 6.07532 161.618 154.282 -8.56423 162.63 158.816 15.1833 179.774 157.679 -23.3238 -165.197 158.596 -7.26253 -171.999 -117.118 -5.55595 152.138 -139.033 34.4099 120.813 -145.765 15.9614 105.276 -137.995 31.9149 119.349 150.777 -7.76167 150.631 178.119 -2.51333 151.91 176.039 0.445951 151.813 141.023 -42.2906 155.454 -120.14 -7.76167 150.631 -172.481 5.18229 153.773 -173.891 -0.0202307 153.087 -162.357 -68.406 137.402 
7.9687 15.6288 193.685 13.7084 -7.76167 150.631 22.3941 -39.467 141.637 15.7616 -1.8082 159.387 42.8774 6.07532 161.618 154.282 -8.56423 162.63 158.816 15.1833 179.774 157.679 -23.3238 -165.197 158.596 -7.26253 -171.999 -117.118 -5.55595 152.138 -139.033 34.4099 120.813 -145.765 15.9614 105.276 -137.995 31.9149 119.349 150.777 -7.76167 150.631 178.119 -2.51333 151.91 176.039 0.445951 151.813 141.023 -42.2906 155.454 -120.14 -7.76167 150.631 -172.481 5.18229 153.773 -173.891 -0.0202307 153.087 -162.357 -68.406 137.402 
7.96959 15.6247 193.691 13.7214 -7.77525 150.599 22.3933 -39.4713 141.627 15.7537 -1.81321 159.387 42.8758 6.10263 161.625 154.291 -8.58081 162.634 158.79 15.1941 179.683 157.644 -23.372 -165.243 158.586 -7.3653 -172.029 -117.138 -5.57137 152.124 -139.035 34.4175 120.804 -145.768 15.9701 105.268 -137.984 31.9617 119.378 150.794 -7.77525 150.599 178.122 -2.52157 151.88 176.04 0.456021 151.783 141.037 -42.3343 155.43 -120.133 -7.77525 150.599 -172.483 5.19149 153.749 -173.884 -0.0250511 153.062 -162.322 -68.403 137.361 
7.96959 15.6247 193.691 13.7214 -7.77525 150.599 22.3933 -39.4713 141.627 15.7537 -1.81321 159.387 42.8758 6.10263 161.625 154.291 -8.58081 162.634 158.79 15.1941 179.683 157.644 -23.372 -165.243 158.586 -7.3653 -172.029 -117.138 -5.57137 152.124 -139.035 34.4175 120.804 -145.768 15.9701 105.268 -137.984 31.9617 119.378 150.794 -7.77525 150.599 178.122 -2.52157 151.88 176.04 0.456021 151.783 141.037 -42.3343 155.43 -120.133 -7.77525 150.599 -172.483 5.19149 153.749 -173.884 -0.0250511 153.062 -162.322 -68.403 137.361 
7.96959 15.6247 193.691 13.7214 -7.77525 150.599 22.3933 -39.4713 141.627 15.7537 -1.81321 159.387 42.8758 6.10263 161.625 154.291 -8.58081 162.634 158.79 15.1941 179.683 157.644 -23.372 -165.243 158.586 -7.3653 -172.029 -117.138 -5.57137 152.124 -139.035 34.4175 120.804 -145.768 15.9701 105.268 -137.984 31.9617 119.378 150.794 -7.77525 150.599 178.122 -2.52157 151.88 176.04 0.456021 151.783 141.037 -42.3343 155.43 -120.133 -7.77525 150.599 -172.483 5.19149 153.749 -173.884 -0.0250511 153.062 -162.322 -68.403 137.361 
7.96959 15.6247 193.691 13.7214 -7.77525 150.599 22.3933 -39.4713 141.627 15.7537 -1.81321 159.387 42.8758 6.10263 161.625 154.291 -8.58081 162.634 158.79 15.1941 179.683 157.644 -23.372 -165.243 158.586 -7.3653 -172.029 -117.138 -5.57137 152.124 -139.035 34.4175 120.804 -145.768 15.9701 105.268 -137.984 31.9617 119.378 150.794 -7.77525 150.599 178.122 -2.52157 151.88 176.04 0.456021 151.783 141.037 -42.3343 155.43 -120.133 -7.77525 150.599 -172.483 5.19149 153.749 -173.884 -0.0250511 153.062 -162.322 -68.403 137.361 
7.96959 15.6247 193.691 13.7214 -7.77525 150.599 22.3933 -39.4713 141.627 15.7537 -1.81321 159.387 42.8758 6.10263 161.625 154.291 -8.58081 162.634 158.79 15.1941 179.683 157.644 -23.372 -165.243 158.586 -7.3653 -172.029 -117.138 -5.57137 152.124 -139.035 34.4175 120.804 -145.768 15.9701 105.268 -137.984 31.9617 119.378 150.794 -7.77525 150.599 178.122 -2.52157 151.88 176.04 0.456021 151.783 141.037 -42.3343 155.43 -120.133 -7.77525 150.599 -172.483 5.19149 153.749 -173.884 -0.0250511 153.062 -162.322 -68.403 137.361 
7.96959 15.6247 193.691 13.7214 -7.77525 150.599 22.3933 -39.4713 141.627 15.7537 -1.81321 159.387 42.8758 6.10263 161.625 154.291 -8.58081 162.634 158.79 15.1941 179.683 157.644 -23.372 -165.243 158.586 -7.3653 -172.029 -117.138 -5.57137 152.124 -139.035 34.4175 120.804 -145.768 15.9701 105.268 -137.984 31.9617 119.378 150.794 -7.77525 150.599 178.122 -2.52157 151.88 176.04 0.456021 151.783 141.037 -42.3343 155.43 -120.133 -7.77525 150.599 -172.483 5.19149 153.749 -173.884 -0.0250511 153.062 -162.322 -68.403 137.361 
7.96959 15.6247 193.691 13.7214 -7.77525 150.599 22.3933 -39.4713 141.627 15.7537 -1.81321 159.387 42.8758 6.10263 161.625 154.291 -8.58081 162.634 158.79 15.1941 179.683 157.644 -23.372 -165.243 158.586 -7.3653 -172.029 -117.138 -5.57137 152.124 -139.035 34.4175 120.804 -145.768 15.9701 105.268 -137.984 31.9617 119.378 150.794 -7.77525 150.599 178.122 -2.52157 151.88 176.04 0.456021 151.783 141.037 -42.3343 155.43 -120.133 -7.77525 150.599 -172.483 5.19149 153.749 -173.884 -0.0250511 153.062 -162.322 -68.403 137.361 
